<?xml version="1.0" standalone="no"?>
<!DOCTYPE svg PUBLIC "-//W3C//DTD SVG 20010904//EN"
 "http://www.w3.org/TR/2001/REC-SVG-20010904/DTD/svg10.dtd">
<svg version="1.0" xmlns="http://www.w3.org/2000/svg"
 width="700.000000pt" height="700.000000pt" viewBox="0 0 700.000000 700.000000"
 preserveAspectRatio="xMidYMid meet">
<metadata>
Created by potrace 1.11, written by Peter Selinger 2001-2013
</metadata>
<g transform="translate(0.000000,700.000000) scale(0.100000,-0.100000)"
fill="#000000" stroke="none">
<path d="M1098 6190 c-150 -46 -263 -167 -296 -315 -5 -23 -9 -1049 -9 -2375
0 -2506 -2 -2383 49 -2483 43 -85 136 -164 238 -203 42 -16 204 -18 2385 -20
1287 -1 2365 2 2394 7 168 26 315 175 341 346 12 80 10 4658 -2 4725 -20 107
-108 228 -206 281 -108 59 30 56 -2507 55 -2198 0 -2333 -1 -2387 -18z m1252
-1049 l0 -329 -327 0 -328 0 1 322 c1 176 2 324 3 329 0 4 147 7 326 7 l325 0
0 -329z m2951 322 c3 -20 5 -629 2 -639 -3 -8 -102 -11 -329 -12 l-324 -1 0
330 0 329 325 0 c179 0 326 -3 326 -7z m-2951 -1142 l0 -329 -327 1 -328 2 -1
320 c0 176 1 323 3 328 2 4 150 7 329 7 l324 0 0 -329z m820 0 l0 -328 -327 1
-328 1 0 315 c-1 173 1 321 3 328 3 9 78 12 328 12 l324 0 0 -329z m2135 2 c0
-208 -3 -324 -10 -326 -5 -3 -153 -4 -327 -5 l-318 0 0 329 0 329 327 -2 328
-3 0 -322z m-2955 -822 l0 -330 -327 2 -328 2 -1 320 c0 176 1 323 3 328 2 4
150 7 329 7 l324 0 0 -329z m1477 2 l-2 -328 -327 -3 -328 -2 0 330 0 330 329
0 330 0 -2 -327z m1479 7 c0 -173 -2 -320 -4 -327 -2 -8 -90 -11 -328 -11
l-324 -1 0 330 0 329 327 -2 328 -3 1 -315z m-2956 -830 l0 -331 -327 3 -328
3 -1 320 c0 176 1 323 3 328 2 4 150 7 329 7 l324 0 0 -330z m2135 0 l0 -325
-327 -3 -328 -2 0 330 0 330 327 -2 328 -3 0 -325z m817 318 c2 -7 4 -155 4
-328 l-1 -315 -328 -3 -327 -2 0 330 0 330 324 0 c250 0 325 -3 328 -12z
m-2952 -1139 l0 -329 -327 2 -328 3 -1 315 c0 173 2 321 4 327 3 10 78 13 328
12 l324 -1 0 -329z m2954 13 c-1 -174 -2 -323 -3 -329 -1 -10 -73 -13 -326
-13 l-325 0 0 330 0 329 328 0 327 0 -1 -317z"/>
</g>
</svg>
