<?xml version="1.0" encoding="UTF-8" standalone="no"?>
<svg
   xmlns:dc="http://purl.org/dc/elements/1.1/"
   xmlns:cc="http://creativecommons.org/ns#"
   xmlns:rdf="http://www.w3.org/1999/02/22-rdf-syntax-ns#"
   xmlns:svg="http://www.w3.org/2000/svg"
   xmlns="http://www.w3.org/2000/svg"
   xmlns:sodipodi="http://sodipodi.sourceforge.net/DTD/sodipodi-0.dtd"
   xmlns:inkscape="http://www.inkscape.org/namespaces/inkscape"
   width="512"
   height="512"
   viewBox="0 0 512 512"
   version="1.1"
   id="svg8"
   inkscape:version="1.0.1 (3bc2e813f5, 2020-09-07)"
   sodipodi:docname="N.差集.svg">
  <defs
     id="defs2" />
  <sodipodi:namedview
     id="base"
     pagecolor="#ffffff"
     bordercolor="#666666"
     borderopacity="1.0"
     inkscape:pageopacity="0.0"
     inkscape:pageshadow="2"
     inkscape:zoom="1.1360799"
     inkscape:cx="334.38443"
     inkscape:cy="236.59283"
     inkscape:document-units="px"
     inkscape:current-layer="layer1"
     inkscape:document-rotation="0"
     showgrid="false"
     units="px"
     scale-x="1"
     inkscape:window-width="1920"
     inkscape:window-height="1024"
     inkscape:window-x="0"
     inkscape:window-y="28"
     inkscape:window-maximized="1" />
  <metadata
     id="metadata5">
    <rdf:RDF>
      <cc:Work
         rdf:about="">
        <dc:format>image/svg+xml</dc:format>
        <dc:type
           rdf:resource="http://purl.org/dc/dcmitype/StillImage" />
        <dc:title></dc:title>
      </cc:Work>
    </rdf:RDF>
  </metadata>
  <g
     inkscape:label="图层 1"
     inkscape:groupmode="layer"
     id="layer1">
    <path
       id="rect10"
       style="fill:#000000;fill-opacity:1;fill-rule:evenodd;stroke-width:1.05916"
       d="M 88.712891 58 C 71.697531 58 58 71.697531 58 88.712891 L 58 423.28711 C 58 440.30247 71.697531 454 88.712891 454 L 423.28711 454 C 440.30247 454 454 440.30247 454 423.28711 L 454 88.712891 C 454 71.697531 440.30247 58 423.28711 58 L 88.712891 58 z M 124 112 L 172 112 L 172 160 L 124 160 L 124 112 z M 340 112 L 388 112 L 388 160 L 340 160 L 340 112 z M 124 172 L 172 172 L 172 220 L 124 220 L 124 172 z M 184 172 L 232 172 L 232 220 L 184 220 L 184 172 z M 340 172 L 388 172 L 388 220 L 340 220 L 340 172 z M 124 232 L 172 232 L 172 280 L 124 280 L 124 232 z M 232 232 L 280 232 L 280 280 L 232 280 L 232 232 z M 340 232 L 388 232 L 388 280 L 340 280 L 340 232 z M 124 292 L 172 292 L 172 340 L 124 340 L 124 292 z M 280 292 L 328 292 L 328 340 L 280 340 L 280 292 z M 340 292 L 388 292 L 388 340 L 340 340 L 340 292 z M 124 352 L 172 352 L 172 400 L 124 400 L 124 352 z M 340 352 L 388 352 L 388 400 L 340 400 L 340 352 z " />
  </g>
</svg>
